# xmcd
#
# Track frame offsets:
#	180
#	17314
#	44586
#	61209
#	77558
#	88957
#	109131
#	132902
#	159600
#	175650
#	188551
#	206924
#
# Disc length: 3000 seconds
#
# Revision: 1
# Processed by: cddbd v1.4PL0 Copyright (c) Steve Scherf et al.
# Submitted via: audiograbber 1.81.03
#
DISCID=9a0bb60c
DTITLE=Vinegar Blue - Vinegar Blue
DYEAR=1900
DGENRE=Blues
TTITLE0=Further On Down The Road
TTITLE1=Midnight Blues
TTITLE2=Mean Woman
TTITLE3=To Be Your Loving Mean
TTITLE4=I Believe
TTITLE5=Can't Do Without Her
TTITLE6=Cocaine
TTITLE7=When I'm With You
TTITLE8=Once I Had A Woman
TTITLE9=I Got News For You
TTITLE10=I Feel Good
TTITLE11=Have You Ever Been Lonely
EXTD=
EXTT0=
EXTT1=
EXTT2=
EXTT3=
EXTT4=
EXTT5=
EXTT6=
EXTT7=
EXTT8=
EXTT9=
EXTT10=
EXTT11=
PLAYORDER=
